<?xml version="1.0" encoding="UTF-8"?>
<svg width="140px" height="18px" viewBox="0 0 140 18" version="1.1" xmlns="http://www.w3.org/2000/svg" xmlns:xlink="http://www.w3.org/1999/xlink">
    <!-- Generator: Sketch 51.1 (57501) - http://www.bohemiancoding.com/sketch -->
    <title>Centogene_Logo_4-Color_RGB</title>
    <desc>Created with Sketch.</desc>
    <defs>
        <polygon id="path-1" points="0.189668764 0.0398181818 1.86460909 0.0398181818 1.86460909 6.13390909 0.189668764 6.13390909"></polygon>
    </defs>
    <g id="Page-1" stroke="none" stroke-width="1" fill="none" fill-rule="evenodd">
        <g id="Physician-Patient-Treatment-Course" transform="translate(-40.000000, -16.000000)">
            <g id="Group-8" transform="translate(0.000000, 10.000000)">
                <g id="Centogene_Logo_4-Color_RGB" transform="translate(40.000000, 6.000000)">
                    <g id="Group-45" transform="translate(0.000000, 0.778364)" fill="#656868">
                        <path d="M8.33323636,16.5279545 C5.95341818,16.5279545 3.88423636,15.7294091 2.35150909,14.2176818 C0.835418182,12.7234091 5.45454545e-05,10.6395 5.45454545e-05,8.35213636 C5.45454545e-05,6.04595455 0.820690909,4.01740909 2.37469091,2.48631818 C3.92132727,0.959863636 5.96678182,0.154227273 8.28850909,0.154227273 C10.0819636,0.154227273 11.6940545,0.655227273 13.2142364,1.68695455 L13.1130545,3.64622727 C11.6891455,2.56868182 10.1065091,2.02404545 8.40087273,2.02404545 C4.74223636,2.02404545 2.18596364,4.63595455 2.18596364,8.3745 C2.18596364,12.0020455 4.68605455,14.6349545 8.1306,14.6349545 C9.92923636,14.6349545 11.5484182,14.0679545 13.0639636,12.9050455 L13.0639636,15.1490455 C11.7158727,16.0768636 10.1678727,16.5279545 8.33323636,16.5279545" id="Fill-1"></path>
                        <polygon id="Fill-3" points="17.6552182 16.1005091 17.6552182 0.536509091 26.1029455 0.536509091 26.1029455 2.2266 19.7287636 2.2266 19.7287636 6.79750909 26.1029455 6.79750909 26.1029455 8.55523636 19.7287636 8.55523636 19.7287636 14.2980545 26.1029455 14.2980545 26.1029455 16.1005091"></polygon>
                        <path d="M34.3053,6.78409091 C33.7530273,6.25227273 33.2403,5.65854545 32.7845727,5.02118182 L32.2950273,4.33527273 L32.2950273,16.0999091 L30.4254818,16.0999091 L30.4254818,0.27 L40.1937545,9.67254545 C40.7585727,10.2199091 41.2936636,10.8155455 41.9258455,11.6061818 L42.4066636,12.207 L42.4066636,0.537272727 L44.2770273,0.537272727 L44.2770273,16.3669091 L34.3053,6.78409091" id="Fill-5"></path>
                        <polygon id="Fill-7" points="51.8871545 16.1005091 51.8871545 2.2266 47.6083364 2.2266 47.6083364 0.536509091 58.2166091 0.536509091 58.2166091 2.2266 53.9607 2.2266 53.9607 16.1005091"></polygon>
                        <path d="M87.8296364,16.5279545 C85.2624545,16.5279545 83.2838182,15.7875 81.7840909,14.2665 C80.3089091,12.7695 79.4956364,10.6692273 79.4956364,8.35213636 C79.4956364,5.97695455 80.2947273,3.99559091 81.8697273,2.46504545 C83.3885455,0.9885 85.5054545,0.177136364 87.8296364,0.177136364 C90.1819091,0.177136364 92.0457273,0.995318182 93.5211818,2.67777273 L92.0334545,3.79731818 C90.9286364,2.60440909 89.5669091,2.02404545 87.8757273,2.02404545 C84.2296364,2.02404545 81.6831818,4.61713636 81.6831818,8.32922727 C81.6831818,12.0950455 84.2386364,14.7257727 87.8978182,14.7257727 C91.0371818,14.7257727 92.9866364,13.1292273 92.9866364,10.5587727 L92.9866364,10.0643182 L89.1133636,10.0643182 L89.1133636,8.39686364 L94.9568182,8.39686364 L94.9644545,8.59268182 C94.9797273,9.02768182 94.9925455,9.36940909 94.9925455,9.63586364 C94.9925455,14.0158636 92.382,16.5279545 87.8296364,16.5279545" id="Fill-9"></path>
                        <polygon id="Fill-11" points="99.0671182 16.1005091 99.0671182 0.536509091 107.513209 0.536509091 107.513209 2.2266 101.140391 2.2266 101.140391 6.79750909 107.513209 6.79750909 107.513209 8.55523636 101.140391 8.55523636 101.140391 14.2980545 107.513209 14.2980545 107.513209 16.1005091"></polygon>
                        <path d="M115.716791,6.78409091 C115.163155,6.25090909 114.651791,5.65854545 114.195518,5.02118182 L113.707064,4.33527273 L113.707064,16.0999091 L111.8367,16.0999091 L111.8367,0.27 L121.605245,9.67254545 C122.168973,10.2185455 122.704609,10.8155455 123.337336,11.6061818 L123.818155,12.207 L123.818155,0.537272727 L125.687155,0.537272727 L125.687155,16.3669091 L115.716791,6.78409091" id="Fill-13"></path>
                        <polygon id="Fill-15" points="130.708527 16.1005091 130.708527 0.536509091 139.154345 0.536509091 139.154345 2.2266 132.781255 2.2266 132.781255 6.79750909 139.154345 6.79750909 139.154345 8.55523636 132.781255 8.55523636 132.781255 14.2980545 139.154345 14.2980545 139.154345 16.1005091"></polygon>
                    </g>
                    <path d="M70.4004,1.25203636 C70.4734909,0.792490909 70.1604,0.359945455 69.7014,0.286309091 C69.2415818,0.212672727 68.8087636,0.524672727 68.7359455,0.983945455 L68.7441273,0.985581818 L68.7345818,0.985581818 L68.7236727,6.36703636 L70.4004,1.25203636" id="Fill-52" fill="#D41030"></path>
                    <g id="Group-90" transform="translate(59.454545, 1.051091)" fill="#D41030">
                        <path d="M13.2552273,1.2294 C13.4665909,0.814581818 13.3021364,0.306490909 12.8884091,0.0954 C12.4725,-0.115418182 11.9655,0.0487636364 11.7530455,0.462763636 L11.7609545,0.4674 C11.7593182,0.466309091 11.7560455,0.464945455 11.7530455,0.4644 L10.0888636,5.5824 L13.2552273,1.2294" id="Fill-54"></path>
                        <path d="M15.1390364,2.92142727 C15.4682182,2.59224545 15.4676727,2.05797273 15.1376727,1.72933636 C14.8079455,1.40015455 14.2747636,1.4007 13.9455818,1.7307 L13.9521273,1.73615455 C13.9496727,1.73479091 13.9483091,1.73260909 13.9450364,1.7307 L10.7860364,6.08779091 L15.1390364,2.92142727" id="Fill-56"></path>
                        <path d="M16.4102455,5.11963636 C16.8239727,4.90827273 16.9887,4.40045455 16.7773364,3.98509091 C16.5665182,3.57081818 16.0581545,3.40690909 15.6441545,3.61827273 L15.6477,3.62536364 C15.6452455,3.62345455 15.6447,3.62018182 15.6433364,3.61827273 L11.2908818,6.78545455 L16.4102455,5.11963636" id="Fill-58"></path>
                        <path d="M16.9386545,7.60933636 C17.3992909,7.53706364 17.7121091,7.10560909 17.6395636,6.6447 C17.5675636,6.18460909 17.1369273,5.87124545 16.6762909,5.94379091 L16.6779273,5.95251818 C16.6771091,5.94924545 16.6762909,5.94679091 16.6757455,5.94379091 L11.5558364,7.60551818 L16.9386545,7.60933636" id="Fill-60"></path>
                        <path d="M16.6755273,10.1424545 C17.1350727,10.2163636 17.5676182,9.90327273 17.6401636,9.44372727 C17.7154364,8.98445455 17.4026182,8.55136364 16.9425273,8.478 L16.9419818,8.48727273 L16.9419818,8.478 L11.5594364,8.46654545 L16.6755273,10.1424545" id="Fill-62"></path>
                        <path d="M15.6466636,12.4527818 C16.0609364,12.6649636 16.5690273,12.4994182 16.7806636,12.0859636 C16.9923,11.6711455 16.8275727,11.1630545 16.4124818,10.9514182 L16.4089364,10.9590545 C16.4092091,10.9557818 16.4111182,10.9538727 16.4111182,10.9506 L11.2925727,9.28669091 L15.6466636,12.4527818" id="Fill-64"></path>
                        <path d="M13.9546364,14.3365636 C14.2840909,14.6657455 14.8178182,14.6652 15.147,14.3349273 C15.4756364,14.0068364 15.4745455,13.4731091 15.1453636,13.1431091 L15.1390909,13.1502 C15.1415455,13.1477455 15.1437273,13.1458364 15.1448182,13.1425636 L10.7874545,9.98410909 L13.9546364,14.3365636" id="Fill-66"></path>
                        <path d="M11.7560455,15.6075 C11.9676818,16.0223182 12.4763182,16.1865 12.8897727,15.9748636 C13.3048636,15.7635 13.4698636,15.2554091 13.2587727,14.8414091 L13.2503182,14.8435909 C13.2530455,14.8425 13.2552273,14.8416818 13.2574091,14.8405909 L10.0910455,10.4881364 L11.7560455,15.6075" id="Fill-68"></path>
                        <path d="M9.26727273,16.1369727 C9.33981818,16.5965182 9.77127273,16.9104273 10.2302727,16.8365182 C10.6909091,16.7647909 11.0048182,16.3338818 10.9322727,15.8732455 L10.9238182,15.8748818 C10.926,15.8748818 10.9295455,15.8732455 10.9322727,15.8732455 L9.27,10.7530636 L9.26727273,16.1369727" id="Fill-70"></path>
                        <path d="M6.73175455,15.8719909 C6.65811818,16.3315364 6.97148182,16.7635364 7.43102727,16.8371727 C7.89002727,16.9116273 8.32257273,16.5993545 8.39620909,16.1392636 L8.38720909,16.1379 C8.39184545,16.1379 8.39484545,16.1384455 8.39675455,16.1389909 L8.40766364,10.7561727 L6.73175455,15.8719909" id="Fill-72"></path>
                        <path d="M4.42221818,14.8426091 C4.21058182,15.2571545 4.37503636,15.7649727 4.78985455,15.9771545 C5.20467273,16.1890636 5.71221818,16.0232455 5.92358182,15.6087 L5.91676364,15.6051545 C5.91867273,15.6057 5.92167273,15.6076091 5.9244,15.6076091 L7.58830909,10.4901545 L4.42221818,14.8426091" id="Fill-74"></path>
                        <path d="M2.53857273,13.1505545 C2.20884545,13.4797364 2.20993636,14.0140091 2.53911818,14.3431909 C2.86911818,14.6718273 3.40202727,14.6718273 3.73120909,14.3426455 L3.72493636,14.3350091 C3.72739091,14.3382818 3.7293,14.3391 3.73202727,14.3412818 L6.89102727,9.98391818 L2.53857273,13.1505545" id="Fill-76"></path>
                        <path d="M1.26760909,10.9533 C0.852790909,11.1638455 0.688609091,11.6716636 0.899972727,12.0862091 C1.11106364,12.5015727 1.61888182,12.6660273 2.0337,12.4541182 L2.03015455,12.4464818 C2.03151818,12.4486636 2.03206364,12.4513909 2.03397273,12.4541182 L6.38642727,9.28748182 L1.26760909,10.9533" id="Fill-78"></path>
                        <path d="M0.738545455,8.4636 C0.278181818,8.53587273 -0.0354545455,8.96732727 0.0379090909,9.4266 C0.110181818,9.88723636 0.541090909,10.2008727 1.00063636,10.1283273 L0.999272727,10.1196 C1.00009091,10.1228727 1.00063636,10.1261455 1.00118182,10.1283273 L6.12190909,8.46687273 L0.738545455,8.4636" id="Fill-80"></path>
                        <path d="M1.0017,5.92688182 C0.542154545,5.85324545 0.109881818,6.16524545 0.0359727273,6.62560909 C-0.0376636364,7.08515455 0.274881818,7.51824545 0.734427273,7.59160909 L0.736063636,7.58233636 C0.736063636,7.58560909 0.736063636,7.58915455 0.735245455,7.59160909 L6.11806364,7.60360909 L1.0017,5.92688182" id="Fill-82"></path>
                        <path d="M2.0316,3.61696364 C1.61678182,3.40478182 1.10869091,3.57032727 0.897054545,3.9846 C0.685418182,4.39941818 0.850963636,4.90669091 1.26578182,5.11914545 L1.26850909,5.11069091 C1.26850909,5.11396364 1.2666,5.11669091 1.26578182,5.11969091 L6.38405455,6.78305455 L2.0316,3.61696364" id="Fill-84"></path>
                        <path d="M3.72297273,1.73263636 C3.39379091,1.404 2.85951818,1.40481818 2.53088182,1.73318182 C2.2017,2.06318182 2.20224545,2.59745455 2.53224545,2.92663636 L2.53851818,2.919 C2.53606364,2.922 2.53442727,2.92418182 2.53224545,2.92718182 L6.88960909,6.08563636 L3.72297273,1.73263636" id="Fill-86"></path>
                        <path d="M5.9217,0.462490909 C5.71006364,0.0476727273 5.20142727,-0.117327273 4.7877,0.0948545455 C4.37288182,0.305945455 4.20733636,0.814581818 4.42033636,1.22830909 L4.42715455,1.22449091 C4.42415455,1.22694545 4.42224545,1.22749091 4.42033636,1.22885455 L7.5867,5.58049091 L5.9217,0.462490909" id="Fill-88"></path>
                    </g>
                    <g id="Group-93" transform="translate(66.000000, 0.232909)">
                        <mask id="mask-2" fill="white">
                            <use xlink:href="#path-1"></use>
                        </mask>
                        <g id="Clip-92"></g>
                        <path d="M1.86460909,0.750545455 C1.79233636,0.291 1.36197273,-0.0223636364 0.902154545,0.0501818182 C0.441518182,0.122181818 0.127336364,0.553636364 0.200154545,1.01318182 L0.208609091,1.01263636 C0.205881818,1.01318182 0.202881818,1.01318182 0.200154545,1.01481818 L1.86160909,6.13390909 L1.86460909,0.750545455" id="Fill-91" fill="#D41030" mask="url(#mask-2)"></path>
                    </g>
                </g>
            </g>
        </g>
    </g>
</svg>