<?xml version="1.0" encoding="UTF-8"?>
<svg width="13px" height="18px" viewBox="0 0 13 18" version="1.1" xmlns="http://www.w3.org/2000/svg" xmlns:xlink="http://www.w3.org/1999/xlink">
    <!-- Generator: sketchtool 51.2 (57519) - http://www.bohemiancoding.com/sketch -->
    <title>807BCF96-7E70-4497-A888-3B5791B936B1</title>
    <desc>Created with sketchtool.</desc>
    <defs></defs>
    <g id="Style-Guide" stroke="none" stroke-width="1" fill="none" fill-rule="evenodd">
        <g id="Artboard" transform="translate(-119.000000, -1116.000000)">
            <rect id="Rectangle-6" fill="#F8F9F9" x="46" y="1041" width="300" height="207"></rect>
            <g id="Group-11" transform="translate(79.000000, 1069.000000)" fill="#FFC107" fill-rule="nonzero">
                <path d="M52.1964714,56 C52.1964714,56 52.422628,58.79 50.3524249,60.23 C50.3524249,60.23 54.4058478,51.914 45.7423087,47 C45.7423087,47 46.9600752,49.142 44.1070222,51.716 C41.7236791,53.858 36.0523664,60.932 44.3853688,65 C44.3853688,65 41.0104159,60.428 45.2030121,57.908 C45.2030121,57.908 43.6025189,60.572 46.4729686,62.822 C48.1778418,60.986 47.7255285,60.05 47.7255285,60.05 C47.7255285,60.05 50.1958549,62.102 48.3692051,65 C48.3692051,65 55.3104744,63.272 52.1964714,56 Z" id="fire_color"></path>
            </g>
        </g>
    </g>
</svg>