<?xml version="1.0" encoding="UTF-8"?>
<svg width="16px" height="16px" viewBox="0 0 16 16" version="1.1" xmlns="http://www.w3.org/2000/svg" xmlns:xlink="http://www.w3.org/1999/xlink">
    <!-- Generator: sketchtool 51.2 (57519) - http://www.bohemiancoding.com/sketch -->
    <title>2149B56C-4D80-4B56-9109-9E2A4A02E08D</title>
    <desc>Created with sketchtool.</desc>
    <defs></defs>
    <g id="Style-Guide" stroke="none" stroke-width="1" fill="none" fill-rule="evenodd">
        <g id="Artboard" transform="translate(-161.000000, -1116.000000)">
            <rect id="Rectangle-6" fill="#F8F9F9" x="46" y="1041" width="300" height="207"></rect>
            <g id="Group-11" transform="translate(79.000000, 1069.000000)" fill="#1565C0" fill-rule="nonzero">
                <path d="M86.3981328,50.3572202 C86.5750438,48.4730557 88.1201249,47 90,47 C91.8798751,47 93.4249562,48.4730557 93.6018672,50.3572202 C95.4002716,49.9478855 97.2409951,51.0027735 97.8219084,52.8400725 C98.4028218,54.677371 97.5170113,56.6426572 95.8279439,57.3978006 C96.7625076,59.0289826 96.3550563,61.1539942 94.8342057,62.2895073 C93.3133545,63.4250204 91.2208118,63.1665789 90,61.7491181 C88.7791882,63.1665789 86.6866455,63.4250204 85.1657943,62.2895073 C83.6449437,61.1539942 83.2374924,59.0289826 84.1720561,57.3978006 C82.4829887,56.6426572 81.5971782,54.677371 82.1780916,52.8400725 C82.7590049,51.0027735 84.5997284,49.9478855 86.3981328,50.3572202 Z M90,57.8183449 C91.2718257,57.8183449 92.3028436,56.7588212 92.3028436,55.4518319 C92.3028436,54.1448427 91.2718257,53.085319 90,53.085319 C88.7281743,53.085319 87.6971564,54.1448427 87.6971564,55.4518319 C87.6971564,56.7588212 88.7281743,57.8183449 90,57.8183449 Z" id="flower_color"></path>
            </g>
        </g>
    </g>
</svg>