<?xml version="1.0" encoding="UTF-8"?>
<svg width="24px" height="24px" viewBox="0 0 24 24" version="1.1" xmlns="http://www.w3.org/2000/svg" xmlns:xlink="http://www.w3.org/1999/xlink">
    <!-- Generator: Sketch 51.1 (57501) - http://www.bohemiancoding.com/sketch -->
    <title>Shape</title>
    <desc>Created with Sketch.</desc>
    <defs></defs>
    <g id="Page-1" stroke="none" stroke-width="1" fill="none" fill-rule="evenodd">
        <g id="Physician-Patient-page-Blank" transform="translate(-40.000000, -18.000000)" fill="#DF293E" fill-rule="nonzero">
            <g id="header">
                <path d="M54.8739401,19.3337259 C54.9748232,18.7086998 54.5463298,18.1209506 53.9223102,18.0188222 C53.2941304,17.9202682 52.7049519,18.3446119 52.6040687,18.9701486 L52.6181091,18.9742337 L52.6040687,18.9742337 L52.5869082,26.2973537 L54.8739401,19.3337259 Z M58.0148388,20.7354387 C58.3034479,20.1701578 58.0803609,19.4797695 57.5182232,19.1927886 C56.9508854,18.905297 56.2613437,19.1284477 55.9737747,19.6896435 L55.9815749,19.6983244 L55.9737747,19.6942393 L53.7049433,26.6614416 L58.0148388,20.7354387 Z M60.5811195,23.0363926 C61.0314537,22.5906019 61.0314537,21.8619155 60.5811195,21.4171461 C60.1318254,20.9672703 59.4022425,20.9672703 58.9571085,21.4171461 L58.9664688,21.4253164 L58.9529483,21.4171461 L54.6560532,27.3472341 L60.5811195,23.0363926 Z M62.313294,26.0318198 C62.8754317,25.7448389 63.0985187,25.0498548 62.8099096,24.4850845 C62.5218205,23.9238887 61.8327989,23.7002274 61.2701412,23.9882296 L61.2748213,23.9963999 L61.265461,23.9882296 L55.3398747,28.2985606 L62.313294,26.0318198 Z M63.0324766,29.4214628 C63.6580563,29.3229088 64.0844697,28.7356703 63.9841065,28.1055378 C63.8879035,27.4800011 63.3039251,27.0561681 62.6762654,27.1537007 L62.6762654,27.1674881 L62.6762654,27.1537007 L55.7023261,29.4173777 L63.0324766,29.4214628 Z M62.6762654,32.8708509 C63.299765,32.9694049 63.8884235,32.5450612 63.9841065,31.9195245 C64.0891498,31.2934771 63.6622164,30.7026641 63.0371567,30.6041102 L63.0371567,30.6163656 L63.0371567,30.6041102 L55.7070063,30.5867483 L62.6762654,32.8708509 Z M61.2753414,36.0158963 C61.837999,36.3028773 62.5265007,36.0756415 62.8151098,35.5149563 C63.1037188,34.9491647 62.8806318,34.2587765 62.313814,33.9723062 L62.3091339,33.9804765 L62.313814,33.9677104 L55.3450749,31.7055654 L61.2753414,36.0158963 Z M58.9711489,38.578299 C59.4162829,39.0281747 60.1448258,39.023579 60.5930799,38.578299 C61.0387339,38.1284232 61.0387339,37.4038219 60.5904798,36.9544567 L60.5811195,36.9631376 L60.5904798,36.9544567 L54.6565732,32.6512748 L58.9711489,38.578299 Z M55.9737747,40.3103973 C56.2655038,40.8761889 56.9555655,41.0978076 57.5182232,40.811848 C58.085041,40.51925 58.3081281,39.8293724 58.020039,39.2646021 L58.0106787,39.2676659 L58.020039,39.2646021 L53.7096235,33.3375779 L55.9737747,40.3103973 Z M52.5869082,41.0304029 C52.6877913,41.6549183 53.2722897,42.084879 53.8963093,41.9812187 C54.5250091,41.8872605 54.9514225,41.300022 54.8505393,40.6693788 L54.8432591,40.6739746 L54.8505393,40.6693788 L52.5915883,33.7026871 L52.5869082,41.0304029 Z M49.1350396,40.6693788 C49.0346765,41.2954262 49.4621299,41.8826647 50.0866696,41.9858144 C50.7101692,42.0843684 51.2998677,41.6590034 51.4002309,41.0329561 L51.3867104,41.0304029 L51.4002309,41.0329561 L51.4179114,33.7062616 L49.1350396,40.6693788 Z M45.9899807,39.2676659 C45.7018917,39.8339682 45.9244587,40.5238458 46.4912765,40.811848 C47.0539342,41.1024034 47.747636,40.8761889 48.0357251,40.3103973 L48.0222046,40.3058016 L48.0357251,40.3103973 L50.2998763,33.3421737 L45.9899807,39.2676659 Z M43.42318,36.9631376 C42.9738859,37.4130134 42.978046,38.1416999 43.42318,38.5869799 C43.8724742,39.0327705 44.6010171,39.0327705 45.0466711,38.5869799 L45.0383508,38.578299 L45.0513512,38.5869799 L49.3487664,32.6517854 L43.42318,36.9631376 Z M41.6951657,33.9723062 C41.1283479,34.2587765 40.9052609,34.9496754 41.1938699,35.5149563 C41.481959,36.0802373 42.1715007,36.3033879 42.7383185,36.0158963 L42.7336384,36.0072154 L42.7383185,36.0158963 L48.6639048,31.7055654 L41.6951657,33.9723062 Z M40.9754631,30.5821525 C40.3467633,30.6817278 39.9193099,31.2684557 40.019153,31.8939924 C40.1195162,32.5241249 40.7045346,32.9479579 41.3280342,32.8499146 L41.3280342,32.8366379 L41.3280342,32.8499146 L48.3014534,30.5867483 L40.9754631,30.5821525 Z M41.3327143,27.1286793 C40.7045346,27.0306359 40.115356,27.454469 40.0144729,28.0800057 C39.9146297,28.7065637 40.3420832,29.2968661 40.9661028,29.3959307 L40.9707829,29.3831646 L40.9707829,29.3959307 L48.2972933,29.4132925 L41.3327143,27.1286793 Z M42.7336384,23.9831232 C42.1715007,23.6961423 41.4772789,23.9233781 41.1891898,24.4845739 C40.9016208,25.0498548 41.1278279,25.7402431 41.6910056,26.0313091 L41.6951657,26.0185431 L41.6910056,26.0313091 L48.6597447,28.2934541 L42.7336384,23.9831232 Z M45.0383508,21.4212312 C44.5885367,20.9703342 43.8599938,20.9749299 43.4148598,21.4212312 C42.9655656,21.8700857 42.9655656,22.5951977 43.4148598,23.0445628 L43.4237001,23.0363926 L43.4148598,23.0445628 L49.3487664,27.3467235 L45.0383508,21.4212312 Z M48.0315649,19.6896435 C47.7434759,19.1238519 47.0497741,18.9012119 46.4871164,19.1881928 C45.9249787,19.4797695 45.6972115,20.1701578 45.9858206,20.7354387 L45.998821,20.7267578 L45.9858206,20.7354387 L50.3009163,26.6578671 L48.0315649,19.6896435 Z M51.4179114,18.969638 C51.3211884,18.3441013 50.73617,17.9151618 50.1079902,18.0142264 C49.4798105,18.1127803 49.052357,18.7000189 49.1527202,19.3255556 L49.1657206,19.3255556 L49.1527202,19.3301514 L51.4179114,26.2973537 L51.4179114,18.969638 Z" id="Shape"></path>
            </g>
        </g>
    </g>
</svg>